<svg width="20" height="20" viewBox="0 0 20 20" fill="none" xmlns="http://www.w3.org/2000/svg">
<path fill-rule="evenodd" clip-rule="evenodd" d="M5.14163 3.33338C5.49446 2.33341 6.43957 1.66467 7.49996 1.66467C8.56035 1.66467 9.50546 2.33341 9.85829 3.33338H18.3333V5.00005H9.85829C9.50546 6.00002 8.56035 6.66876 7.49996 6.66876C6.43957 6.66876 5.49446 6.00002 5.14163 5.00005H1.66663V3.33338H5.14163ZM12.5 7.49801C11.4396 7.49801 10.4945 8.16675 10.1416 9.16672H1.66663V10.8334H10.1416C10.4945 11.8333 11.4396 12.5021 12.5 12.5021C13.5603 12.5021 14.5055 11.8333 14.8583 10.8334H18.3333V9.16672H14.8583C14.5055 8.16675 13.5603 7.49801 12.5 7.49801ZM7.49996 13.3313C6.43957 13.3313 5.49446 14.0001 5.14163 15H1.66663V16.6667H5.14163C5.49446 17.6667 6.43957 18.3354 7.49996 18.3354C8.56035 18.3354 9.50546 17.6667 9.85829 16.6667H18.3333V15H9.85829C9.50546 14.0001 8.56035 13.3313 7.49996 13.3313ZM8.33329 4.16671C8.33329 4.62695 7.9602 5.00005 7.49996 5.00005C7.03972 5.00005 6.66663 4.62695 6.66663 4.16671C6.66663 3.70648 7.03972 3.33338 7.49996 3.33338C7.9602 3.33338 8.33329 3.70648 8.33329 4.16671ZM12.5 10.8334C12.9602 10.8334 13.3333 10.4603 13.3333 10C13.3333 9.53981 12.9602 9.16672 12.5 9.16672C12.0397 9.16672 11.6666 9.53981 11.6666 10C11.6666 10.4603 12.0397 10.8334 12.5 10.8334ZM8.33329 15.8334C8.33329 16.2936 7.9602 16.6667 7.49996 16.6667C7.03972 16.6667 6.66663 16.2936 6.66663 15.8334C6.66663 15.3731 7.03972 15 7.49996 15C7.9602 15 8.33329 15.3731 8.33329 15.8334Z" fill="black"/>
</svg>
